<svg id="Layer_1" data-name="Layer 1" xmlns="http://www.w3.org/2000/svg" viewBox="0 0 334.59 731.13"><defs><style>.cls-1{fill:#1a1a1a;}.cls-2{fill:#e1e1e1;}</style></defs><path class="cls-1" d="M1063.81,878.51c0-.73-.5.57,0,0Z" transform="translate(-832.71 -631.93)"/><path class="cls-2" d="M1159.59,971.76c-2.72,9.57-7.88,19.93-7.9,30.11h-.07c-1.2-19.2-2.95-38.31-7.78-57-9.18-35.55-26.76-66.43-50.66-94-22.89-26.39-48.45-51.85-61.6-84.89-9.45-23.73-9.64-49.94-5.82-75.72.78-5.25,1.72-10.49,2.79-15.68,2.72-13.28,6.25-26.28,9.83-38.6.53-1.35,1-2.7,1.61-4-4.92,25.94.54,49.92,13,73.19,15,28,37.28,50.73,57.08,75.27,24.84,30.8,46.5,67.66,54.06,106.58C1169.76,916,1167.66,943.44,1159.59,971.76Z" transform="translate(-832.71 -631.93)"/><path class="cls-2" d="M1118.21,967.6c-6.27,23.66-18.94,45.61-25.18,69.17,12.81-48.38-38.53-77.18-66.07-107-12-13-22-29.45-23.24-47.46-1.68-23.89,7.62-49.59,18.77-72.56q1.71-3.51,3.45-6.93c2.2-4.31,4.44-8.5,6.64-12.54l.16.18c-.53,1.2-1,2.43-1.52,3.68l0,.08c-11.9,36.42,19.5,66.42,44,88S1127.65,931.92,1118.21,967.6Z" transform="translate(-832.71 -631.93)"/><path class="cls-2" d="M1095.67,1028.75l-.2-.2-.76-.78c-25.29-25.94-60.86-48.2-65.64-83a51.18,51.18,0,0,1-.12-12.91,52.53,52.53,0,0,1,2.3-10.22,66.59,66.59,0,0,1,3.68-8.06c-2.8,5.1-5.55,10.44-8.17,16-1.19,2.51-2.36,5.06-3.49,7.64-.25.56-.5,1.09-.74,1.66v0q-2.35,5.42-4.48,11c-.42,1.09-.82,2.17-1.22,3.27-5.51,15-9.54,30.62-10.94,45.58-2,21.74,7.9,41.74,22,57.61.43.49.87,1,1.32,1.45q1.18,1.31,2.43,2.58c25.67,26.34,68.09,53.74,63,95.67a5.13,5.13,0,0,1,.64.69c6.67-20.72,17.35-40.46,22.94-61.55C1125.59,1067.34,1113.3,1047.08,1095.67,1028.75Z" transform="translate(-832.71 -631.93)"/><path class="cls-1" d="M1093.78,1161.17c.09-.38.16-.76.23-1.14A6.4,6.4,0,0,0,1093.78,1161.17ZM874.94,817c-.14.4-.26.78-.38,1.15.14-.39.28-.79.41-1.19Z" transform="translate(-832.71 -631.93)"/><path class="cls-2" d="M1098.73,1155.14a4.51,4.51,0,0,0-3.26-1.41,1.62,1.62,0,0,0-1,.5c.06-.24.14-.47.21-.7.18-.6.37-1.19.56-1.79a5.13,5.13,0,0,0-.64-.69c-.13,1.09-.29,2.2-.5,3.31-.65-6.18-6.84-12.16-11.16-15.72-25.21-20.78-58.41-47.34-54-84.15q-.85-.87-1.65-1.74c-1.34,3.45-2.7,6.91-4,10.38l-.72,1.87c.45,15.33,5.53,42,33,58.8,0,0-36.84-12.42-38.63-43.74-12.26,34.45-18.67,68.78,10.07,99.9,11.33,12.27,26.66,24.33,39.91,37.69-17.17-4.59-33.63-13.11-50-22.7-37.78-22.06-68.38-51.44-95.72-85.26a9.08,9.08,0,0,1-2.06-3.59c-.37-1.82.43-3.65,1.22-5.33C931,1078,943.36,1056,955.76,1034q-22.2,31.92-41.22,65.9c-15-27.31-31.13-51.87-41-81.72a317.38,317.38,0,0,1-16-96,153.68,153.68,0,0,0,57.08,60.59c.48-1.07.95-2.14,1.42-3.21,2.36-8.43,6.44-17,9.84-25.29-2.65,6.72-7,17.66-9.26,24l0-.08a.08.08,0,0,0,0,0c19-43.54,33.61-90,32-137.45-1.22-35.22-14.36-76-49.4-91-14.21,39-31.15,76.92-44.49,116.19-22.19,65.28-29.74,133-12.68,200.53a317,317,0,0,0,41.51,94.55c-13.87,36.35-17.82,77.55-6.84,115.2,21.69,74.38,121,120.54,179.5,57,22.72-24.67,44-53.47,56.12-85.26a121.14,121.14,0,0,0,8-43.36C1120.06,1185.26,1113.82,1167.5,1098.73,1155.14ZM875.85,819.58c32.17,16.19,44.37,47.74,46.92,81.73-.22-2.88-14.46-12.79-17-15.42a129.54,129.54,0,0,1-15.08-18.75c-9.1-13.94-12.86-28.22-15.25-44.47-.18-1.18-.33-2.35-.4-3.49Zm-.91-7.55,0,0c-.13.4-.27.8-.41,1.19C874.68,812.81,874.8,812.43,874.94,812Zm178.15,483.39c-55.58,18.89-113.26-17.43-134.35-69.15-3.63-8.91-7.7-18.29-8.24-28,1.83,1.91,3.91,4.26,6,6.19,26.6,24.29,51.8,48.43,83.77,65.62a242.4,242.4,0,0,0,34.46,15.27c5.89,2.06,21.14,9.33,27.32,6.55Q1057.68,1293.86,1053.09,1295.42Z" transform="translate(-832.71 -631.93)"/><path class="cls-1" d="M1031.83,789.8" transform="translate(-832.71 -631.93)"/></svg>